# AST/ASF file generated using VICON BodyLanguage
# -----------------------------------------------
:version 1.10
:name VICON
:units
  mass 1.0
  length 0.45
  angle deg
:documentation
   .ast/.asf automatically generated from VICON data using
   VICON BodyBuilder and BodyLanguage model FoxedUp or BRILLIANT.MOD
:root
   order TX TY TZ RX RY RZ
   axis XYZ
   position 0 0 0  
   orientation 0 0 0 
:bonedata
  begin
     id 1 
     name lhipjoint
     direction 0.560651 -0.75055 0.34978 
     length 2.44936 
     axis 0 0 0  XYZ
  end
  begin
     id 2 
     name lfemur
     direction 0.34202 -0.939693 0  
     length 7.42139  
     axis 0 0 20  XYZ
    dof rx ry rz
    limits (-160.0 20.0)
           (-70.0 70.0)
           (-60.0 70.0)
  end
  begin
     id 3 
     name ltibia
     direction 0.34202 -0.939693 0   
     length 7.75674   
     axis 0 0 20   XYZ
    dof rx
    limits (-10.0 170.0)
  end
  begin
     id 4 
     name lfoot
     direction 0.0925879 -0.254383 0.962661   
     length 2.38688   
     axis -90 7.62852e-016 20   XYZ
    dof rx rz
    limits (-45.0 90.0)
           (-70.0 20.0)
  end
  begin
     id 5 
     name ltoes
     direction 1.53567e-011 -4.21973e-011 1   
     length 1.19228   
     axis -90 7.62852e-016 20   XYZ
    dof rx
    limits (-90.0 20.0)
  end
  begin
     id 6 
     name rhipjoint
     direction -0.540087 -0.762838 0.355506   
     length 2.4099  
     axis 0 0 0  XYZ 
  end
  begin
     id 7 
     name rfemur
     direction -0.34202 -0.939693 0   
     length 7.70794   
     axis 0 0 -20   XYZ
    dof rx ry rz
    limits (-160.0 20.0)
           (-70.0 70.0)
           (-70.0 60.0)
  end
  begin
     id 8 
     name rtibia
     direction -0.34202 -0.939693 0   
     length 7.66106   
     axis 0 0 -20   XYZ
    dof rx
    limits (-10.0 170.0)
 end
 begin
     id 9 
     name rfoot
     direction -0.0830975 -0.228308 0.970036   
     length 2.4989  
     axis -90 -7.62852e-016 -20   XYZ
    dof rx rz
    limits (-45.0 90.0)
           (-20.0 70.0)
  end
  begin
     id 10 
     name rtoes
     direction -1.53517e-011 -4.21842e-011 1   
     length 1.2498   
     axis -90 -7.62852e-016 -20   XYZ
    dof rx
    limits (-90.0 20.0)
  end
  begin
     id 11 
     name lowerback
     direction 0.0266356 0.99402 -0.105896   
     length 2.1545   
     axis 0 0 0   XYZ
    dof rx ry rz
    limits (-20.0 45.0)
           (-30.0 30.0)
           (-30.0 30.0)
  end
  begin
     id 12 
     name upperback
     direction 0.0130547 0.999192 0.0380027   
     length 2.1434   
     axis 0 0 0   XYZ
    dof rx ry rz
    limits (-20.0 45.0)
           (-30.0 30.0)
           (-30.0 30.0)
  end
  begin
     id 13 
     name thorax
     direction 0.000590299 0.996288 0.0860764   
     length 2.19049   
     axis 0 0 0   XYZ
    dof rx ry rz
    limits (-20.0 45.0)
           (-30.0 30.0)
           (-30.0 30.0)
  end
  begin
     id 14 
     name lowerneck
     direction -0.0432125 0.978219 0.203028   
     length 1.62441   
     axis 0 0 0   XYZ
    dof rx ry rz
    limits (-20.0 45.0)
           (-30.0 30.0)
           (-30.0 30.0)
  end
  begin
     id 15 
     name upperneck
     direction -0.0192309 0.991699 -0.127138   
     length 1.66666   
     axis 0 0 0   XYZ
    dof rx ry rz
    limits (-20.0 45.0)
           (-30.0 30.0)
           (-30.0 30.0)
  end
  begin
     id 16
     name head
     direction -0.00434499 0.997882 -0.0649107  
     length 1.67142  
     axis 0 0 0   XYZ
    dof rx ry rz
    limits (-20.0 45.0)
           (-30.0 30.0)
           (-30.0 30.0)
  end
  begin
     id 17 
     name lclavicle
     direction 0.970351 0.240904 -0.0196058  
     length 4.04862  
     axis 0 0 0   XYZ
    dof ry rz
    limits (-20.0 10.0)
           (0.0 20.0)
  end
  begin
     id 18 
     name lhumerus
     direction 1 -4.4896e-011 -1.40911e-018   
     length 5.58345   
     axis 180 -30 -90   XYZ
    dof rx ry rz
    limits (-60.0 90.0)
           (-90.0 90.0)
           (-90.0 90.0)
  end
  begin
     id 19
     name lradius
     direction 1 -4.48968e-011 5.88912e-028   
     length 3.71087   
     axis 180 -30 -90   XYZ
    dof rx
    limits (-10.0 170.0)
  end
  begin
     id 20
     name lwrist
     direction 1 -4.48955e-011 -8.83775e-028   
     length 1.85544   
     axis 5.52448e-016 90 90   XYZ
    dof ry
    limits (-180.0 0.0)
 end
  begin
     id 21 
     name lhand
     direction 1 -4.49035e-011 -1.76755e-027   
     length 0.562322   
     axis 1.12785e-015 90 90   XYZ
    dof rx rz
    limits (-90.0 90.0)
           (-45.0 45.0)
  end
  begin
     id 22 
     name lfingers
     direction 1 -4.48824e-011 -3.5351e-027   
     length 0.453359   
     axis 2.2557e-015 90 90   XYZ
    dof rx
    limits (0.0 90.0)
  end
  begin
     id 23
     name lthumb
     direction 0.707107 -6.34888e-011 0.707107   
     length 0.650935   
     axis -90 45 2.85299e-015   XYZ
    dof rx rz
    limits (-45.0 45.0)
           (-45.0 45.0)
  end
  begin
     id 24 
     name rclavicle
     direction -0.96165 0.268562 -0.0557131   
     length 4.05446  
     axis 0 0 0   XYZ 
    dof ry rz
    limits (-10.0 20.0)
           (-20.0 0.0)
  end
  begin
     id 25 
     name rhumerus
     direction -1 -4.48957e-011 -3.36329e-027  
     length 5.20357   
     axis 180 30 90   XYZ
    dof rx ry rz
    limits (-90.0 60.0)
           (-90.0 90.0)
           (-90.0 90.0)
  end
  begin
     id 26 
     name rradius
     direction -1 -4.48974e-011 4.51441e-027   
     length 3.64937   
     axis 180 30 90   XYZ
    dof rx
    limits (-10.0 170.0)
  end
  begin
     id 27 
     name rwrist
     direction -1 -4.4896e-011 -8.83775e-028   
     length 1.82468   
     axis 5.52448e-016 -90 -90   XYZ
    dof ry
    limits (-180.0 0.0)
  end
  begin
     id 28
     name rhand
     direction -1 -4.48996e-011 -1.76755e-027   
     length 0.617996   
     axis 1.12785e-015 -90 -90   XYZ
    dof rx rz
    limits (-90.0 90.0)
           (-45.0 45.0)
  end
  begin
     id 29
     name rfingers
     direction -1 -4.48957e-011 -3.5351e-027   
     length 0.498244   
     axis 2.2557e-015 -90 -90   XYZ
    dof rx
    limits (0.0 90.0)
  end
  begin
     id 30
     name rthumb
     direction -0.707107 -6.34931e-011 0.707107   
     length 0.715382   
     axis -90 -45 -2.85299e-015   XYZ
    dof rx rz
    limits (-45.0 45.0)
           (-45.0 45.0)
  end
:hierarchy
  begin
    root lhipjoint rhipjoint lowerback
    lhipjoint lfemur
    lfemur ltibia
    ltibia lfoot
    lfoot ltoes
    rhipjoint rfemur
    rfemur rtibia
    rtibia rfoot
    rfoot rtoes
    lowerback upperback
    upperback thorax
    thorax lowerneck lclavicle rclavicle
    lowerneck upperneck
    upperneck head
    lclavicle lhumerus
    lhumerus lradius
    lradius lwrist
    lwrist lhand lthumb
    lhand lfingers
    rclavicle rhumerus
    rhumerus rradius
    rradius rwrist
    rwrist rhand rthumb
    rhand rfingers
  end

#!OML:ASF H:\ManfredETheater\Project 1\Capture day 2\Session 1\Male1.ASF
:FULLY-SPECIFIED
:DEGREES
196
root 3.3704 16.1678 1.69952 -8.89862 -2.10146 -3.52823
lowerback 8.30347 0.201643 2.33971
upperback 0.504635 0.616365 2.98351
thorax -4.14522 0.288146 1.70861
lowerneck -26.4613 -0.679476 -1.37894
upperneck 22.9516 0.529785 -3.17191
head 11.9362 -0.335414 -0.876534
rclavicle 2.73329e-015 -6.75868e-015
rhumerus 34.0798 -0.658412 -51.2271
rradius 55.4674
rwrist 20.2112
rhand 10.9452 -18.5772
rfingers 7.12502
rthumb 36.0223 -44.8882
lclavicle 2.73329e-015 -6.75868e-015
lhumerus 25.9955 3.26477 64.2496
lradius 71.0074
lwrist -19.6136
lhand 18.1101 13.9569
lfingers 7.12502
lthumb 42.7706 38.2834
rfemur -12.2473 -11.1849 14.3828
rtibia 61.4496
rfoot -32.1432 -3.32215
rtoes -11.9772
lfemur -12.1361 8.29172 -6.06407
ltibia 59.9546
lfoot -32.2739 -4.42024
ltoes -12.096
197
root 3.37068 16.1665 1.69954 -8.89302 -2.09141 -3.5396
lowerback 8.31323 0.194716 2.34889
upperback 0.502745 0.608616 2.98593
thorax -4.1525 0.284116 1.70689
lowerneck -26.4002 -0.672513 -1.37623
upperneck 22.8855 0.533752 -3.16936
head 11.8991 -0.331603 -0.874095
rclavicle 1.6847e-014 1.03368e-014
rhumerus 34.1123 -0.646116 -51.2185
rradius 55.4385
rwrist 20.1797
rhand 10.906 -18.5887
rfingers 7.12502
rthumb 35.9851 -44.9089
lclavicle 1.6847e-014 1.03368e-014
lhumerus 25.9804 3.26645 64.236
lradius 71.0112
lwrist -19.6144
lhand 18.0822 13.9483
lfingers 7.12502
lthumb 42.7445 38.2839
rfemur -12.2468 -11.1955 14.3932
rtibia 61.4525
rfoot -32.1532 -3.34796
rtoes -12.0402
lfemur -12.153 8.29169 -6.0532
ltibia 59.964
lfoot -32.2711 -4.38411
ltoes -12.283
198
root 3.37052 16.1663 1.69981 -8.88661 -2.08531 -3.53591
lowerback 8.30779 0.198258 2.34322
upperback 0.513972 0.611808 2.97896
thorax -4.13776 0.28583 1.7024
lowerneck -26.3966 -0.676122 -1.36303
upperneck 22.8477 0.523504 -3.17479
head 11.8837 -0.335159 -0.879653
rclavicle -2.98177e-015 -3.69739e-014
rhumerus 34.131 -0.678945 -51.2253
rradius 55.4255
rwrist 20.1894
rhand 10.8777 -18.5794
rfingers 7.12502
rthumb 35.9584 -44.9061
lclavicle -2.98177e-015 -3.69739e-014
lhumerus 26.02 3.26816 64.2318
lradius 70.9932
lwrist -19.628
lhand 18.0707 13.9524
lfingers 7.12502
lthumb 42.7337 38.2917
rfemur -12.2532 -11.1996 14.3898
rtibia 61.4536
rfoot -32.1615 -3.32975
rtoes -12.0079
lfemur -12.1616 8.29557 -6.05511
ltibia 59.9677
lfoot -32.2642 -4.41544
ltoes -12.2049
199
root 3.37042 16.1668 1.70069 -8.88595 -2.08254 -3.51327
lowerback 8.33455 0.195994 2.31558
upperback 0.49573 0.607867 2.97317
thorax -4.17192 0.284152 1.71245
lowerneck -26.3088 -0.662663 -1.33169
upperneck 22.7945 0.537179 -3.21542
head 11.8472 -0.330404 -0.896451
rclavicle 5.71506e-015 -1.27222e-014
rhumerus 34.1256 -0.650202 -51.2148
rradius 55.4083
rwrist 20.1914
rhand 10.8644 -18.5757
rfingers 7.12502
rthumb 35.9458 -44.9055
lclavicle 5.71506e-015 -1.27222e-014
lhumerus 25.984 3.27319 64.2316
lradius 71.0108
lwrist -19.6126
lhand 18.0272 13.9918
lfingers 7.12502
lthumb 42.6931 38.3453
rfemur -12.2538 -11.1917 14.3671
rtibia 61.4559
rfoot -32.1523 -3.35989
rtoes -12.0893
lfemur -12.1622 8.30075 -6.07832
ltibia 59.9724
lfoot -32.2623 -4.43393
ltoes -12.1708
200
root 3.37061 16.1674 1.70157 -8.87237 -2.07212 -3.51772
lowerback 8.32336 0.18935 2.31655
upperback 0.498313 0.59868 2.97698
thorax -4.16287 0.279661 1.71695
lowerneck -26.2858 -0.654933 -1.31442
upperneck 22.7637 0.546903 -3.24152
head 11.8313 -0.327495 -0.906886
rclavicle 1.14301e-015 -3.69739e-014
rhumerus 34.154 -0.648418 -51.2071
rradius 55.4033
rwrist 20.1914
rhand 10.8679 -18.5827
rfingers 7.12502
rthumb 35.9491 -44.9117
lclavicle 1.14301e-015 -3.69739e-014
lhumerus 25.991 3.29994 64.2403
lradius 71.0088
lwrist -19.5907
lhand 18.0074 13.9618
lfingers 7.12502
lthumb 42.6745 38.3218
rfemur -12.2616 -11.201 14.3704
rtibia 61.4569
rfoot -32.1555 -3.32923
rtoes -11.9521
lfemur -12.1796 8.30352 -6.07372
ltibia 59.9757
lfoot -32.2604 -4.45801
ltoes -12.1261
201
root 3.37093 16.167 1.70204 -8.84976 -2.06849 -3.51977
lowerback 8.3205 0.18536 2.31114
upperback 0.495152 0.593167 2.98409
thorax -4.16462 0.277082 1.72806
lowerneck -26.2829 -0.646479 -1.30783
upperneck 22.739 0.561022 -3.26164
head 11.8216 -0.323005 -0.912761
rclavicle -1.35671e-014 -1.39149e-014
rhumerus 34.1885 -0.64516 -51.2055
rradius 55.3931
rwrist 20.2204
rhand 10.8651 -18.5911
rfingers 7.12502
rthumb 35.9463 -44.9208
lclavicle -1.35671e-014 -1.39149e-014
lhumerus 25.9896 3.34047 64.2652
lradius 71.0204
lwrist -19.5853
lhand 18.0482 13.9599
lfingers 7.12502
lthumb 42.7127 38.3065
rfemur -12.2892 -11.2001 14.3776
rtibia 61.4629
rfoot -32.1437 -3.35109
rtoes -12.0182
lfemur -12.212 8.31446 -6.07387
ltibia 59.9882
lfoot -32.2494 -4.45341
ltoes -12.1702
202
root 3.37122 16.1675 1.70282 -8.8228 -2.07085 -3.52116
lowerback 8.30406 0.183477 2.31324
upperback 0.486416 0.590527 2.98515
thorax -4.16446 0.275735 1.72833
lowerneck -26.2258 -0.639268 -1.30562
upperneck 22.6882 0.567776 -3.26459
head 11.7915 -0.318995 -0.912031
rclavicle 3.8763e-015 5.1684e-015
rhumerus 34.21 -0.641271 -51.2144
rradius 55.3831
rwrist 20.2389
rhand 10.8804 -18.597
rfingers 7.12502
rthumb 35.9609 -44.9231
lclavicle 3.8763e-015 5.1684e-015
lhumerus 25.9923 3.36936 64.2752
lradius 71.0255
lwrist -19.5819
lhand 18.0621 13.9616
lfingers 7.12502
lthumb 42.7257 38.3038
rfemur -12.3216 -11.1972 14.3828
rtibia 61.4692
rfoot -32.1379 -3.33463
rtoes -11.9797
lfemur -12.2417 8.33286 -6.07347
ltibia 59.9969
lfoot -32.245 -4.47509
ltoes -12.1862
203
root 3.37114 16.1669 1.70342 -8.80891 -2.06897 -3.54401
lowerback 8.31011 0.180505 2.33239
upperback 0.475885 0.589274 2.99014
thorax -4.17868 0.274719 1.72297
lowerneck -26.185 -0.630153 -1.30361
upperneck 22.6485 0.576174 -3.26075
head 11.7686 -0.313606 -0.908683
rclavicle 5.31749e-015 1.59028e-014
rhumerus 34.2145 -0.62753 -51.1941
rradius 55.3819
rwrist 20.2042
rhand 10.8627 -18.659
rfingers 7.12502
rthumb 35.9441 -44.9892
lclavicle 5.31749e-015 1.59028e-014
lhumerus 25.9804 3.37975 64.2814
lradius 71.034
lwrist -19.5831
lhand 18.0537 13.9625
lfingers 7.12502
lthumb 42.7179 38.3074
rfemur -12.3405 -11.1918 14.4152
rtibia 61.4752
rfoot -32.1335 -3.34411
rtoes -11.9869
lfemur -12.2643 8.346 -6.0456
ltibia 60.0102
lfoot -32.2483 -4.47285
ltoes -12.2559
204
root 3.37106 16.1674 1.70358 -8.8024 -2.05392 -3.5416
lowerback 8.32976 0.175917 2.32294
upperback 0.477763 0.583154 2.99197
thorax -4.18778 0.27184 1.7309
lowerneck -26.199 -0.625168 -1.29145
upperneck 22.6276 0.582412 -3.2762
head 11.7634 -0.311671 -0.915264
rclavicle -6.01324e-015 -9.93923e-015
rhumerus 34.2375 -0.641005 -51.1988
rradius 55.3888
rwrist 20.2112
rhand 10.8876 -18.62
rfingers 7.12502
rthumb 35.9677 -44.9445
lclavicle -6.01324e-015 -9.93923e-015
lhumerus 25.9934 3.40298 64.2915
lradius 71.0424
lwrist -19.5983
lhand 18.0451 13.9522
lfingers 7.12502
lthumb 42.7098 38.2999
rfemur -12.3446 -11.2021 14.4117
rtibia 61.4804
rfoot -32.1268 -3.34742
rtoes -12.0186
lfemur -12.2818 8.34129 -6.0485
ltibia 60.0163
lfoot -32.2403 -4.48647
ltoes -12.2664
205
root 3.37099 16.168 1.70485 -8.80077 -2.06162 -3.58509
lowerback 8.3411 0.172259 2.35957
upperback 0.480323 0.582843 3.00844
thorax -4.19132 0.271124 1.72749
lowerneck -26.1595 -0.618812 -1.28687
upperneck 22.5705 0.589318 -3.28625
head 11.7342 -0.308406 -0.917631
rclavicle -8.89561e-015 3.97569e-016
rhumerus 34.2639 -0.634627 -51.1854
rradius 55.3972
rwrist 20.1764
rhand 10.899 -18.6399
rfingers 7.12502
rthumb 35.9785 -44.9617
lclavicle -8.89561e-015 3.97569e-016
lhumerus 26.0045 3.43329 64.3036
lradius 71.0436
lwrist -19.6231
lhand 18.0258 13.9172
lfingers 7.12502
lthumb 42.6918 38.2712
rfemur -12.3412 -11.1821 14.4676
rtibia 61.4788
rfoot -32.1248 -3.35628
rtoes -11.9917
lfemur -12.2778 8.35425 -5.99304
ltibia 60.0204
lfoot -32.2419 -4.51801
ltoes -12.2145
206
root 3.3709 16.1675 1.70568 -8.79804 -2.0524 -3.56706
lowerback 8.36148 0.169583 2.34018
upperback 0.469343 0.578403 2.99918
thorax -4.2142 0.269084 1.72935
lowerneck -26.0994 -0.616701 -1.28871
upperneck 22.5158 0.58488 -3.27031
head 11.7018 -0.307062 -0.911042
rclavicle -6.06293e-015 -1.07344e-014
rhumerus 34.2589 -0.632368 -51.2001
rradius 55.4143
rwrist 20.1584
rhand 10.9289 -18.6153
rfingers 7.12502
rthumb 36.0069 -44.9301
lclavicle -6.06293e-015 -1.07344e-014
lhumerus 25.9826 3.43045 64.2934
lradius 71.0599
lwrist -19.6057
lhand 17.9541 13.8861
lfingers 7.12502
lthumb 42.6247 38.2634
rfemur -12.338 -11.1795 14.4478
rtibia 61.4822
rfoot -32.1288 -3.3604
rtoes -11.9983
lfemur -12.2831 8.35753 -6.01299
ltibia 60.0244
lfoot -32.2428 -4.51189
ltoes -12.2554
207
root 3.37147 16.1677 1.70669 -8.78286 -2.04365 -3.53716
lowerback 8.34115 0.178206 2.31088
upperback 0.484477 0.58521 2.98981
thorax -4.18729 0.273078 1.73516
lowerneck -26.1366 -0.622026 -1.27466
upperneck 22.5106 0.576556 -3.28405
head 11.7067 -0.311655 -0.920161
rclavicle -3.97569e-015 3.97569e-015
rhumerus 34.2899 -0.664268 -51.1759
rradius 55.4286
rwrist 20.13
rhand 10.9126 -18.676
rfingers 7.12502
rthumb 35.9914 -44.9946
lclavicle -3.97569e-015 3.97569e-015
lhumerus 26.0373 3.43799 64.3152
lradius 71.058
lwrist -19.6006
lhand 17.9274 13.9033
lfingers 7.12502
lthumb 42.5997 38.2892
rfemur -12.3541 -11.1852 14.4108
rtibia 61.4817
rfoot -32.1368 -3.36473
rtoes -12.0257
lfemur -12.2948 8.35486 -6.05588
ltibia 60.0233
lfoot -32.2433 -4.48916
ltoes -12.3346
208
root 3.37108 16.1668 1.70722 -8.78354 -2.04035 -3.55858
lowerback 8.36863 0.177548 2.31807
upperback 0.475431 0.587038 2.99997
thorax -4.2122 0.273814 1.74155
lowerneck -26.0851 -0.618683 -1.27781
upperneck 22.4561 0.57821 -3.28054
head 11.6761 -0.309496 -0.917027
rclavicle 9.19379e-015 3.29983e-014
rhumerus 34.2897 -0.655614 -51.1531
rradius 55.44
rwrist 20.1093
rhand 10.8651 -18.6191
rfingers 7.12502
rthumb 35.9464 -44.9488
lclavicle 9.19379e-015 3.29983e-014
lhumerus 26.0311 3.43972 64.3242
lradius 71.0696
lwrist -19.6177
lhand 17.89 13.8882
lfingers 7.12502
lthumb 42.5646 38.2862
rfemur -12.3514 -11.177 14.4412
rtibia 61.4833
rfoot -32.1337 -3.38535
rtoes -12.0137
lfemur -12.2994 8.36061 -6.02523
ltibia 60.0297
lfoot -32.2418 -4.49848
ltoes -12.3391
209
root 3.37159 16.1676 1.70905 -8.78851 -2.02805 -3.54607
lowerback 8.3756 0.176078 2.30644
upperback 0.484796 0.58364 2.99371
thorax -4.20634 0.272332 1.74192
lowerneck -26.0698 -0.615267 -1.27221
upperneck 22.4175 0.577811 -3.2763
head 11.6584 -0.307897 -0.915868
rclavicle -3.37934e-015 -2.54444e-014
rhumerus 34.3153 -0.674909 -51.1529
rradius 55.4493
rwrist 20.1341
rhand 10.8534 -18.6128
rfingers 7.12502
rthumb 35.9353 -44.9452
lclavicle -3.37934e-015 -2.54444e-014
lhumerus 26.0517 3.44875 64.3284
lradius 71.0884
lwrist -19.6206
lhand 17.8988 13.8658
lfingers 7.12502
lthumb 42.5729 38.261
rfemur -12.3307 -11.185 14.4176
rtibia 61.4774
rfoot -32.143 -3.38299
rtoes -11.9924
lfemur -12.2898 8.35471 -6.04368
ltibia 60.0303
lfoot -32.2482 -4.50416
ltoes -12.319
210
root 3.37094 16.1676 1.70906 -8.77373 -2.04511 -3.58031
lowerback 8.38677 0.18411 2.32757
upperback 0.482744 0.597354 3.00385
thorax -4.21486 0.278775 1.73899
lowerneck -26.0839 -0.611508 -1.24165
upperneck 22.4071 0.578447 -3.30281
head 11.6572 -0.308498 -0.930691
rclavicle -4.47266e-015 5.56597e-015
rhumerus 34.3265 -0.697284 -51.155
rradius 55.4546
rwrist 20.1604
rhand 10.8304 -18.5534
rfingers 7.12502
rthumb 35.9135 -44.8911
lclavicle -4.47266e-015 5.56597e-015
lhumerus 26.0707 3.44651 64.3284
lradius 71.0879
lwrist -19.638
lhand 17.9007 13.8556
lfingers 7.12502
lthumb 42.5746 38.2502
rfemur -12.3515 -11.1594 14.4752
rtibia 61.4759
rfoot -32.1376 -3.41287
rtoes -12.0309
lfemur -12.306 8.37645 -5.99334
ltibia 60.0428
lfoot -32.2427 -4.55535
ltoes -12.2559
